<mxfile host="Electron" modified="2021-12-10T00:29:38.273Z" agent="5.0 (X11; Linux x86_64) AppleWebKit/537.36 (KHTML, like Gecko) draw.io/15.8.7 Chrome/91.0.4472.164 Electron/13.6.2 Safari/537.36" etag="GznUKdFtOnt31lFJQPFF" compressed="false" version="15.8.7" type="device">
  <diagram id="8lg1zx1ASKxshYwD0hvJ" name="Page-1">
    <mxGraphModel dx="1422" dy="860" grid="1" gridSize="17" guides="1" tooltips="1" connect="1" arrows="1" fold="1" page="1" pageScale="1" pageWidth="827" pageHeight="1169" math="0" shadow="0">
      <root>
        <mxCell id="0" />
        <mxCell id="1" parent="0" />
        <mxCell id="rUZGJksImo55Bjjk6Eyn-1" value="" style="group" vertex="1" connectable="0" parent="1">
          <mxGeometry x="56" y="34" width="760" height="1059" as="geometry" />
        </mxCell>
        <mxCell id="0zkB9wPyUaOFZc9xkL7J-28" value="&lt;u&gt;&lt;font color=&quot;#006600&quot;&gt;Tower Design&lt;/font&gt;&lt;/u&gt;" style="text;strokeColor=none;fillColor=none;html=1;fontSize=24;fontStyle=1;verticalAlign=middle;align=center;" parent="rUZGJksImo55Bjjk6Eyn-1" vertex="1">
          <mxGeometry x="317.77507054534897" y="38.325714285714284" width="101.52558164388145" height="40.34285714285714" as="geometry" />
        </mxCell>
        <mxCell id="0zkB9wPyUaOFZc9xkL7J-30" value="" style="shape=crossbar;whiteSpace=wrap;html=1;rounded=1;direction=south;fontSize=11;strokeWidth=2;fillColor=#ffe6cc;strokeColor=#d79b00;" parent="rUZGJksImo55Bjjk6Eyn-1" vertex="1">
          <mxGeometry y="135.14857142857142" width="20.305116328776293" height="901.6628571428571" as="geometry" />
        </mxCell>
        <mxCell id="0zkB9wPyUaOFZc9xkL7J-95" value="" style="endArrow=none;html=1;rounded=0;fontSize=14;strokeWidth=2;" parent="rUZGJksImo55Bjjk6Eyn-1" edge="1">
          <mxGeometry width="50" height="50" relative="1" as="geometry">
            <mxPoint x="567.5280013892974" y="280.3828571428571" as="sourcePoint" />
            <mxPoint x="590.8788851673901" y="280.3828571428571" as="targetPoint" />
          </mxGeometry>
        </mxCell>
        <mxCell id="0zkB9wPyUaOFZc9xkL7J-96" value="" style="endArrow=none;html=1;rounded=0;fontSize=14;strokeWidth=2;" parent="rUZGJksImo55Bjjk6Eyn-1" edge="1">
          <mxGeometry width="50" height="50" relative="1" as="geometry">
            <mxPoint x="569.558513022175" y="352.99999999999994" as="sourcePoint" />
            <mxPoint x="592.4017688920483" y="352.99999999999994" as="targetPoint" />
          </mxGeometry>
        </mxCell>
        <mxCell id="vlYfrsktfdxK0X-WOt23-2" value="" style="verticalLabelPosition=middle;verticalAlign=middle;html=1;shape=trapezoid;perimeter=trapezoidPerimeter;whiteSpace=wrap;size=0.23;arcSize=10;flipV=1;labelPosition=center;align=center;rotation=-180;fillColor=none;strokeWidth=3;" parent="rUZGJksImo55Bjjk6Eyn-1" vertex="1">
          <mxGeometry x="283.17917255935424" y="134.05665472874387" width="145.64623972125835" height="449.4632550736171" as="geometry" />
        </mxCell>
        <mxCell id="vlYfrsktfdxK0X-WOt23-4" value="" style="endArrow=none;dashed=1;html=1;rounded=0;strokeWidth=2;fillColor=#e1d5e7;strokeColor=#9673a6;" parent="rUZGJksImo55Bjjk6Eyn-1" edge="1">
          <mxGeometry width="50" height="50" relative="1" as="geometry">
            <mxPoint x="355.5609401784039" y="1025.8061069107307" as="sourcePoint" />
            <mxPoint x="355.5609401784039" y="92.78857142857142" as="targetPoint" />
          </mxGeometry>
        </mxCell>
        <mxCell id="vlYfrsktfdxK0X-WOt23-6" value="" style="verticalLabelPosition=middle;verticalAlign=middle;html=1;shape=trapezoid;perimeter=trapezoidPerimeter;whiteSpace=wrap;size=0.23;arcSize=10;flipV=1;labelPosition=center;align=center;rotation=-180;fillColor=none;strokeWidth=4;" parent="rUZGJksImo55Bjjk6Eyn-1" vertex="1">
          <mxGeometry x="221.38985873821446" y="584.4170420480169" width="269.2248673635382" height="297.8479055577663" as="geometry" />
        </mxCell>
        <mxCell id="YXHGIRA-ETTw9SwlpS6y-2" value="" style="endArrow=none;html=1;rounded=0;strokeWidth=4;" parent="rUZGJksImo55Bjjk6Eyn-1" edge="1">
          <mxGeometry width="50" height="50" relative="1" as="geometry">
            <mxPoint x="221.38985873821446" y="881.3678153601273" as="sourcePoint" />
            <mxPoint x="188.72979286132616" y="1030.2917681390104" as="targetPoint" />
          </mxGeometry>
        </mxCell>
        <mxCell id="YXHGIRA-ETTw9SwlpS6y-3" value="" style="endArrow=none;html=1;rounded=0;strokeWidth=4;" parent="rUZGJksImo55Bjjk6Eyn-1" edge="1">
          <mxGeometry width="50" height="50" relative="1" as="geometry">
            <mxPoint x="190.0538495860648" y="1034.77742936729" as="sourcePoint" />
            <mxPoint x="520.1853262875836" y="1034.77742936729" as="targetPoint" />
            <Array as="points">
              <mxPoint x="355.5609401784039" y="882.2649476057833" />
            </Array>
          </mxGeometry>
        </mxCell>
        <mxCell id="YXHGIRA-ETTw9SwlpS6y-4" value="" style="endArrow=none;html=1;rounded=0;strokeWidth=4;exitX=0;exitY=0;exitDx=0;exitDy=0;" parent="rUZGJksImo55Bjjk6Eyn-1" source="vlYfrsktfdxK0X-WOt23-6" edge="1">
          <mxGeometry width="50" height="50" relative="1" as="geometry">
            <mxPoint x="508.26881576493525" y="883.1620798514391" as="sourcePoint" />
            <mxPoint x="520.6266785291633" y="1032.0860326303223" as="targetPoint" />
          </mxGeometry>
        </mxCell>
        <mxCell id="YXHGIRA-ETTw9SwlpS6y-7" value="" style="whiteSpace=wrap;html=1;strokeWidth=2;fillColor=#006600;sketch=1;fillWeight=-1;hachureGap=8;fillStyle=cross-hatch;strokeColor=none;" parent="rUZGJksImo55Bjjk6Eyn-1" vertex="1">
          <mxGeometry x="52.79330245481836" y="1028.4975036476987" width="615.2450247619216" height="30.502496352301364" as="geometry" />
        </mxCell>
        <mxCell id="YXHGIRA-ETTw9SwlpS6y-12" value="" style="endArrow=none;html=1;rounded=0;strokeWidth=3;entryX=0;entryY=0.75;entryDx=0;entryDy=0;exitX=1;exitY=0.75;exitDx=0;exitDy=0;" parent="rUZGJksImo55Bjjk6Eyn-1" source="vlYfrsktfdxK0X-WOt23-2" target="vlYfrsktfdxK0X-WOt23-2" edge="1">
          <mxGeometry width="50" height="50" relative="1" as="geometry">
            <mxPoint x="310.54301153728767" y="282.0834752619711" as="sourcePoint" />
            <mxPoint x="385.5728926058147" y="281.1863430163151" as="targetPoint" />
          </mxGeometry>
        </mxCell>
        <mxCell id="YXHGIRA-ETTw9SwlpS6y-13" value="" style="endArrow=none;html=1;rounded=0;strokeWidth=3;entryX=0.042;entryY=0.741;entryDx=0;entryDy=0;entryPerimeter=0;" parent="rUZGJksImo55Bjjk6Eyn-1" edge="1">
          <mxGeometry width="50" height="50" relative="1" as="geometry">
            <mxPoint x="292.8889218741048" y="435.49308926913386" as="sourcePoint" />
            <mxPoint x="419.17745227968317" y="435.5738311712428" as="targetPoint" />
          </mxGeometry>
        </mxCell>
        <mxCell id="YXHGIRA-ETTw9SwlpS6y-14" value="" style="endArrow=none;html=1;rounded=0;strokeWidth=3;exitX=0.814;exitY=0.194;exitDx=0;exitDy=0;exitPerimeter=0;" parent="rUZGJksImo55Bjjk6Eyn-1" source="vlYfrsktfdxK0X-WOt23-2" edge="1">
          <mxGeometry width="50" height="50" relative="1" as="geometry">
            <mxPoint x="318.4917654081356" y="221.0757911606313" as="sourcePoint" />
            <mxPoint x="401.9294066787536" y="221.07848255736835" as="targetPoint" />
          </mxGeometry>
        </mxCell>
        <mxCell id="YXHGIRA-ETTw9SwlpS6y-15" value="" style="endArrow=none;html=1;rounded=0;strokeWidth=3;exitX=1;exitY=0.75;exitDx=0;exitDy=0;entryX=0.091;entryY=0.535;entryDx=0;entryDy=0;entryPerimeter=0;" parent="rUZGJksImo55Bjjk6Eyn-1" edge="1">
          <mxGeometry width="50" height="50" relative="1" as="geometry">
            <mxPoint x="298.18241753497284" y="374.49131497617475" as="sourcePoint" />
            <mxPoint x="414.6888999828191" y="374.51949619312904" as="targetPoint" />
          </mxGeometry>
        </mxCell>
        <mxCell id="YXHGIRA-ETTw9SwlpS6y-17" value="" style="endArrow=none;html=1;rounded=0;strokeWidth=3;entryX=0.034;entryY=0.872;entryDx=0;entryDy=0;entryPerimeter=0;" parent="rUZGJksImo55Bjjk6Eyn-1" target="vlYfrsktfdxK0X-WOt23-2" edge="1">
          <mxGeometry width="50" height="50" relative="1" as="geometry">
            <mxPoint x="288.4489183238144" y="525.206313834726" as="sourcePoint" />
            <mxPoint x="414.7374487293927" y="525.287055736835" as="targetPoint" />
          </mxGeometry>
        </mxCell>
        <mxCell id="YXHGIRA-ETTw9SwlpS6y-24" value="" style="endArrow=none;html=1;rounded=0;strokeWidth=3;" parent="rUZGJksImo55Bjjk6Eyn-1" edge="1">
          <mxGeometry width="50" height="50" relative="1" as="geometry">
            <mxPoint x="151.6562045686422" y="281.1863430163151" as="sourcePoint" />
            <mxPoint x="305.24678463833277" y="281.18634301631494" as="targetPoint" />
          </mxGeometry>
        </mxCell>
        <mxCell id="YXHGIRA-ETTw9SwlpS6y-25" value="" style="endArrow=none;html=1;rounded=0;strokeWidth=3;entryX=1;entryY=0.75;entryDx=0;entryDy=0;" parent="rUZGJksImo55Bjjk6Eyn-1" edge="1">
          <mxGeometry width="50" height="50" relative="1" as="geometry">
            <mxPoint x="150.77350008548305" y="281.1863430163151" as="sourcePoint" />
            <mxPoint x="311.0081136752751" y="220.18537332626687" as="targetPoint" />
          </mxGeometry>
        </mxCell>
        <mxCell id="YXHGIRA-ETTw9SwlpS6y-27" value="" style="endArrow=none;html=1;rounded=0;strokeWidth=3;" parent="rUZGJksImo55Bjjk6Eyn-1" edge="1">
          <mxGeometry width="50" height="50" relative="1" as="geometry">
            <mxPoint x="139.2983418044142" y="435.49308926913363" as="sourcePoint" />
            <mxPoint x="292.8889218741048" y="435.49308926913363" as="targetPoint" />
          </mxGeometry>
        </mxCell>
        <mxCell id="YXHGIRA-ETTw9SwlpS6y-28" value="" style="endArrow=none;html=1;rounded=0;strokeWidth=3;" parent="rUZGJksImo55Bjjk6Eyn-1" edge="1">
          <mxGeometry width="50" height="50" relative="1" as="geometry">
            <mxPoint x="128.7058880065045" y="583.519909802361" as="sourcePoint" />
            <mxPoint x="282.2964680761951" y="583.519909802361" as="targetPoint" />
          </mxGeometry>
        </mxCell>
        <mxCell id="YXHGIRA-ETTw9SwlpS6y-29" value="" style="endArrow=none;html=1;rounded=0;strokeWidth=3;entryX=1;entryY=0.75;entryDx=0;entryDy=0;" parent="rUZGJksImo55Bjjk6Eyn-1" edge="1">
          <mxGeometry width="50" height="50" relative="1" as="geometry">
            <mxPoint x="138.41563732125508" y="435.49308926913386" as="sourcePoint" />
            <mxPoint x="298.6502509110471" y="374.4921195790858" as="targetPoint" />
          </mxGeometry>
        </mxCell>
        <mxCell id="YXHGIRA-ETTw9SwlpS6y-30" value="" style="endArrow=none;html=1;rounded=0;strokeWidth=3;" parent="rUZGJksImo55Bjjk6Eyn-1" edge="1">
          <mxGeometry width="50" height="50" relative="1" as="geometry">
            <mxPoint x="130.4712969728228" y="582.622777556705" as="sourcePoint" />
            <mxPoint x="286.7099904919908" y="525.206313834726" as="targetPoint" />
          </mxGeometry>
        </mxCell>
        <mxCell id="YXHGIRA-ETTw9SwlpS6y-32" value="" style="endArrow=none;html=1;rounded=0;strokeWidth=3;" parent="rUZGJksImo55Bjjk6Eyn-1" edge="1">
          <mxGeometry width="50" height="50" relative="1" as="geometry">
            <mxPoint x="406.7578002016341" y="281.18634301631494" as="sourcePoint" />
            <mxPoint x="560.3483802713247" y="281.18634301631494" as="targetPoint" />
          </mxGeometry>
        </mxCell>
        <mxCell id="YXHGIRA-ETTw9SwlpS6y-33" value="" style="endArrow=none;html=1;rounded=0;strokeWidth=3;" parent="rUZGJksImo55Bjjk6Eyn-1" edge="1">
          <mxGeometry width="50" height="50" relative="1" as="geometry">
            <mxPoint x="418.23295848270294" y="435.49308926913363" as="sourcePoint" />
            <mxPoint x="571.8235385523935" y="435.49308926913363" as="targetPoint" />
          </mxGeometry>
        </mxCell>
        <mxCell id="YXHGIRA-ETTw9SwlpS6y-34" value="" style="endArrow=none;html=1;rounded=0;strokeWidth=3;" parent="rUZGJksImo55Bjjk6Eyn-1" edge="1">
          <mxGeometry width="50" height="50" relative="1" as="geometry">
            <mxPoint x="429.70811676377167" y="584.4170420480167" as="sourcePoint" />
            <mxPoint x="583.2986968334626" y="584.4170420480167" as="targetPoint" />
          </mxGeometry>
        </mxCell>
        <mxCell id="YXHGIRA-ETTw9SwlpS6y-35" value="" style="endArrow=none;html=1;rounded=0;strokeWidth=3;" parent="rUZGJksImo55Bjjk6Eyn-1" edge="1">
          <mxGeometry width="50" height="50" relative="1" as="geometry">
            <mxPoint x="559.4656757881655" y="281.1863430163151" as="sourcePoint" />
            <mxPoint x="400.57886881952004" y="220.18135031171244" as="targetPoint" />
          </mxGeometry>
        </mxCell>
        <mxCell id="YXHGIRA-ETTw9SwlpS6y-36" value="" style="endArrow=none;html=1;rounded=0;strokeWidth=3;" parent="rUZGJksImo55Bjjk6Eyn-1" edge="1">
          <mxGeometry width="50" height="50" relative="1" as="geometry">
            <mxPoint x="571.8235385523933" y="435.49308926913386" as="sourcePoint" />
            <mxPoint x="412.9367315837481" y="374.4880965645311" as="targetPoint" />
          </mxGeometry>
        </mxCell>
        <mxCell id="YXHGIRA-ETTw9SwlpS6y-38" value="" style="endArrow=none;html=1;rounded=0;strokeWidth=3;entryX=0.029;entryY=0.874;entryDx=0;entryDy=0;entryPerimeter=0;" parent="rUZGJksImo55Bjjk6Eyn-1" edge="1">
          <mxGeometry width="50" height="50" relative="1" as="geometry">
            <mxPoint x="582.4159923503032" y="583.5199098023612" as="sourcePoint" />
            <mxPoint x="424.601671328696" y="525.9904074174294" as="targetPoint" />
          </mxGeometry>
        </mxCell>
        <mxCell id="YXHGIRA-ETTw9SwlpS6y-51" value="" style="endArrow=none;html=1;rounded=0;endSize=6;strokeWidth=3;" parent="rUZGJksImo55Bjjk6Eyn-1" edge="1">
          <mxGeometry width="50" height="50" relative="1" as="geometry">
            <mxPoint x="298.1851487730596" y="374.4880965645311" as="sourcePoint" />
            <mxPoint x="414.7021405500664" y="374.4880965645311" as="targetPoint" />
            <Array as="points">
              <mxPoint x="354.6782356952447" y="283.877739753283" />
            </Array>
          </mxGeometry>
        </mxCell>
        <mxCell id="YXHGIRA-ETTw9SwlpS6y-52" value="" style="endArrow=none;html=1;rounded=0;endSize=6;strokeWidth=3;exitX=0.967;exitY=0.872;exitDx=0;exitDy=0;exitPerimeter=0;entryX=0.034;entryY=0.869;entryDx=0;entryDy=0;entryPerimeter=0;" parent="rUZGJksImo55Bjjk6Eyn-1" edge="1">
          <mxGeometry width="50" height="50" relative="1" as="geometry">
            <mxPoint x="288.868202953315" y="525.9886131529381" as="sourcePoint" />
            <mxPoint x="424.7561446132488" y="524.6402233877171" as="targetPoint" />
            <Array as="points">
              <mxPoint x="355.1195879368243" y="434.59595702347787" />
            </Array>
          </mxGeometry>
        </mxCell>
        <mxCell id="YXHGIRA-ETTw9SwlpS6y-53" value="" style="endArrow=none;html=1;rounded=0;endSize=6;strokeWidth=4;exitX=1;exitY=0;exitDx=0;exitDy=0;entryX=0;entryY=0;entryDx=0;entryDy=0;" parent="rUZGJksImo55Bjjk6Eyn-1" edge="1">
          <mxGeometry width="50" height="50" relative="1" as="geometry">
            <mxPoint x="222.27256322137393" y="882.264947605783" as="sourcePoint" />
            <mxPoint x="491.4974305849112" y="882.264947605783" as="targetPoint" />
            <Array as="points">
              <mxPoint x="355.1902042954771" y="770.1234168987928" />
            </Array>
          </mxGeometry>
        </mxCell>
        <mxCell id="YXHGIRA-ETTw9SwlpS6y-54" value="" style="endArrow=none;html=1;rounded=0;endSize=6;strokeWidth=4;entryX=0.091;entryY=0.617;entryDx=0;entryDy=0;entryPerimeter=0;exitX=0.908;exitY=0.616;exitDx=0;exitDy=0;exitPerimeter=0;" parent="rUZGJksImo55Bjjk6Eyn-1" edge="1">
          <mxGeometry width="50" height="50" relative="1" as="geometry">
            <mxPoint x="246.15854653565992" y="769.6856163629127" as="sourcePoint" />
            <mxPoint x="466.1152631716707" y="769.9834642684707" as="targetPoint" />
          </mxGeometry>
        </mxCell>
        <mxCell id="0zkB9wPyUaOFZc9xkL7J-18" value="" style="shape=image;verticalLabelPosition=bottom;labelBackgroundColor=#ffffff;verticalAlign=top;aspect=fixed;imageAspect=0;image=data:image/png,iVBORw0KGgoAAAANSUhEUgAAAB4AAABUCAIAAAAakRD/AAAE9klEQVRYCe1YQY/TOhC2lraoasERUlccyiYHRNuVUCIVbS5QRxyAC0qlVsvRuSOUir1xcXpFYrP/oBxW2huphDg7B+4Rv8A/wT8hT6zfWknsbfpQ90kg5tAdjydfxrOT+WyDfAshhARBkKbpeDymlG7xxE8XsI3f7wl9fn7e6XTm83mv12OMbbPQbRNiWVa73e52u81mE2O8S2gAQKvVms/n7XYbIbQzaMZYp9NpNBoAgNu3bxuGsTPoOI7DMJRwCKEkSeRwg1JffAihYi2TS9mAKKfqocfjcRzH6ZVgjIuLkECqoofmnK/X6+hSAAB37tyBV9JutzudjphK01RFlJYqNGNsOp1CCH3fF2s/PT2lBfn69etyuRRTCCEAwGKx4JxLRKmUoDnnhmHEcSynaxXOOcbY8zzVswRNKXUc5yqr1b8/fvyomq7GAJRwxGtKJs55GIZIkSdPnkAIMcYPHjw4OjpS5hEhpCZqdVpYBoMBAODx48eGYTiOc51bxV6KujInhkmSIITevXs3mUyiKIIQbtmh6qExxqvVSr41DMMt/8/10Df4NXa73YcPHzpXcv/+fdd15SI2KJqoGWNRFHmeBy6l1WrZBXn06FGz2RRTnuednZ1pvxcNFRBCTNMkhBRbkjY0zjmlNAxD0zSL/wzpXIo6yzLTNK+LQj5TUbIs0zbxKrRhGJ4izy5luVw+ffp0Mpko8x6EsPI+TUIYY4Ve9K/quq5hGG/fvh0Oh7PZTHXQLrQUtfrmPM8ZY4PBAEIIABiNRtq1ax+sh64QmG3bfwlsZwQWBAGEEKGfXZgQslwuiyUhCUx0dgBAFEX1FfLnEpjrur8Jgdm2LQjsw4cPN0hgGOPfgcDu3r17UwR269YtQVfyV2zjDcOYTqf/jcAghGEYbkNgSZJgjE3T1PbCUlP9QwlsNBppCUy7VSslRMtDnPN+vw8hbDabw+HQsiytm2qsh47jGGOcZdm3b98YY6ZpZlmmAqmWeujKaU40cRVItWwFXSzEHUAzxtI0Xa/Xe3t78mMRyr1799brdZqmWnKR4Vej5pxHUWRZluAwjPHLly9FpOI3DMM3b974vi+OX47jfP78WcIVlSq04zi+72uLqfiY1Cmltm0HQSAtUilBCz85t6XCOd/qBGbbdiWzcogxlnpF0V6SlKK+Lsx+v28YxuvXrw8PD3d5H5Jl2eHh4fPnz03TnM1mAIDNhSHjq4+6cuSqHMgkkKrUQ9/gCezg4CAIAnFLEUURQmg2m6kxqhZN1OIyZLFYeJ7nOE6lGMRQnDmiKNpwJVKFTpLEMAyxI6CUXtfkxAaTEIIQsixL61aCZoxBCLV+6nqlZbVaaU8hJWhKqWVZMq0V5eLiomKRw/qvMc/zJEmKzUjonueJLA2HQ3lxVHTTLrQUtVxjUeGci/uQXq8HIdw9gX358oUQ8v37910SmO/7xR2MyENxWdfp9QnZ/dfIORf3Yeqeb39/X0xt7lPVqAWBOY4jCAwhpBKYYK+/BLaBwHzfV+ukmmvVI89zSWCj0Wj3BPbq1SvTNI+Pj/8S2E0RmLxILNJYo9H4RQKzLMv3/TiOBUupNSMuDymlhBDbth3Hqe/Xv0xg2iZequv/m8BOTk5evHghCGwwGHieV6QuodcnRE1rnueUUtd1AQCCwLQMq32wlBCth9h0f/z48f37958+fdoe+h9SfdNGnUr7mwAAAABJRU5ErkJggg==;" parent="rUZGJksImo55Bjjk6Eyn-1" vertex="1">
          <mxGeometry x="146.2696679700902" y="282.98060750762704" width="25.585438701875496" height="71.6392283652514" as="geometry" />
        </mxCell>
        <mxCell id="0zkB9wPyUaOFZc9xkL7J-19" value="" style="shape=image;verticalLabelPosition=bottom;labelBackgroundColor=#ffffff;verticalAlign=top;aspect=fixed;imageAspect=0;image=data:image/png,iVBORw0KGgoAAAANSUhEUgAAAB4AAABUCAIAAAAakRD/AAAE9klEQVRYCe1YQY/TOhC2lraoasERUlccyiYHRNuVUCIVbS5QRxyAC0qlVsvRuSOUir1xcXpFYrP/oBxW2huphDg7B+4Rv8A/wT8hT6zfWknsbfpQ90kg5tAdjydfxrOT+WyDfAshhARBkKbpeDymlG7xxE8XsI3f7wl9fn7e6XTm83mv12OMbbPQbRNiWVa73e52u81mE2O8S2gAQKvVms/n7XYbIbQzaMZYp9NpNBoAgNu3bxuGsTPoOI7DMJRwCKEkSeRwg1JffAihYi2TS9mAKKfqocfjcRzH6ZVgjIuLkECqoofmnK/X6+hSAAB37tyBV9JutzudjphK01RFlJYqNGNsOp1CCH3fF2s/PT2lBfn69etyuRRTCCEAwGKx4JxLRKmUoDnnhmHEcSynaxXOOcbY8zzVswRNKXUc5yqr1b8/fvyomq7GAJRwxGtKJs55GIZIkSdPnkAIMcYPHjw4OjpS5hEhpCZqdVpYBoMBAODx48eGYTiOc51bxV6KujInhkmSIITevXs3mUyiKIIQbtmh6qExxqvVSr41DMMt/8/10Df4NXa73YcPHzpXcv/+fdd15SI2KJqoGWNRFHmeBy6l1WrZBXn06FGz2RRTnuednZ1pvxcNFRBCTNMkhBRbkjY0zjmlNAxD0zSL/wzpXIo6yzLTNK+LQj5TUbIs0zbxKrRhGJ4izy5luVw+ffp0Mpko8x6EsPI+TUIYY4Ve9K/quq5hGG/fvh0Oh7PZTHXQLrQUtfrmPM8ZY4PBAEIIABiNRtq1ax+sh64QmG3bfwlsZwQWBAGEEKGfXZgQslwuiyUhCUx0dgBAFEX1FfLnEpjrur8Jgdm2LQjsw4cPN0hgGOPfgcDu3r17UwR269YtQVfyV2zjDcOYTqf/jcAghGEYbkNgSZJgjE3T1PbCUlP9QwlsNBppCUy7VSslRMtDnPN+vw8hbDabw+HQsiytm2qsh47jGGOcZdm3b98YY6ZpZlmmAqmWeujKaU40cRVItWwFXSzEHUAzxtI0Xa/Xe3t78mMRyr1799brdZqmWnKR4Vej5pxHUWRZluAwjPHLly9FpOI3DMM3b974vi+OX47jfP78WcIVlSq04zi+72uLqfiY1Cmltm0HQSAtUilBCz85t6XCOd/qBGbbdiWzcogxlnpF0V6SlKK+Lsx+v28YxuvXrw8PD3d5H5Jl2eHh4fPnz03TnM1mAIDNhSHjq4+6cuSqHMgkkKrUQ9/gCezg4CAIAnFLEUURQmg2m6kxqhZN1OIyZLFYeJ7nOE6lGMRQnDmiKNpwJVKFTpLEMAyxI6CUXtfkxAaTEIIQsixL61aCZoxBCLV+6nqlZbVaaU8hJWhKqWVZMq0V5eLiomKRw/qvMc/zJEmKzUjonueJLA2HQ3lxVHTTLrQUtVxjUeGci/uQXq8HIdw9gX358oUQ8v37910SmO/7xR2MyENxWdfp9QnZ/dfIORf3Yeqeb39/X0xt7lPVqAWBOY4jCAwhpBKYYK+/BLaBwHzfV+ukmmvVI89zSWCj0Wj3BPbq1SvTNI+Pj/8S2E0RmLxILNJYo9H4RQKzLMv3/TiOBUupNSMuDymlhBDbth3Hqe/Xv0xg2iZequv/m8BOTk5evHghCGwwGHieV6QuodcnRE1rnueUUtd1AQCCwLQMq32wlBCth9h0f/z48f37958+fdoe+h9SfdNGnUr7mwAAAABJRU5ErkJggg==;" parent="rUZGJksImo55Bjjk6Eyn-1" vertex="1">
          <mxGeometry x="145.2544121536514" y="437.2873537604456" width="25.585438701875496" height="71.6392283652514" as="geometry" />
        </mxCell>
        <mxCell id="0zkB9wPyUaOFZc9xkL7J-20" value="" style="shape=image;verticalLabelPosition=bottom;labelBackgroundColor=#ffffff;verticalAlign=top;aspect=fixed;imageAspect=0;image=data:image/png,iVBORw0KGgoAAAANSUhEUgAAAB4AAABUCAIAAAAakRD/AAAE9klEQVRYCe1YQY/TOhC2lraoasERUlccyiYHRNuVUCIVbS5QRxyAC0qlVsvRuSOUir1xcXpFYrP/oBxW2huphDg7B+4Rv8A/wT8hT6zfWknsbfpQ90kg5tAdjydfxrOT+WyDfAshhARBkKbpeDymlG7xxE8XsI3f7wl9fn7e6XTm83mv12OMbbPQbRNiWVa73e52u81mE2O8S2gAQKvVms/n7XYbIbQzaMZYp9NpNBoAgNu3bxuGsTPoOI7DMJRwCKEkSeRwg1JffAihYi2TS9mAKKfqocfjcRzH6ZVgjIuLkECqoofmnK/X6+hSAAB37tyBV9JutzudjphK01RFlJYqNGNsOp1CCH3fF2s/PT2lBfn69etyuRRTCCEAwGKx4JxLRKmUoDnnhmHEcSynaxXOOcbY8zzVswRNKXUc5yqr1b8/fvyomq7GAJRwxGtKJs55GIZIkSdPnkAIMcYPHjw4OjpS5hEhpCZqdVpYBoMBAODx48eGYTiOc51bxV6KujInhkmSIITevXs3mUyiKIIQbtmh6qExxqvVSr41DMMt/8/10Df4NXa73YcPHzpXcv/+fdd15SI2KJqoGWNRFHmeBy6l1WrZBXn06FGz2RRTnuednZ1pvxcNFRBCTNMkhBRbkjY0zjmlNAxD0zSL/wzpXIo6yzLTNK+LQj5TUbIs0zbxKrRhGJ4izy5luVw+ffp0Mpko8x6EsPI+TUIYY4Ve9K/quq5hGG/fvh0Oh7PZTHXQLrQUtfrmPM8ZY4PBAEIIABiNRtq1ax+sh64QmG3bfwlsZwQWBAGEEKGfXZgQslwuiyUhCUx0dgBAFEX1FfLnEpjrur8Jgdm2LQjsw4cPN0hgGOPfgcDu3r17UwR269YtQVfyV2zjDcOYTqf/jcAghGEYbkNgSZJgjE3T1PbCUlP9QwlsNBppCUy7VSslRMtDnPN+vw8hbDabw+HQsiytm2qsh47jGGOcZdm3b98YY6ZpZlmmAqmWeujKaU40cRVItWwFXSzEHUAzxtI0Xa/Xe3t78mMRyr1799brdZqmWnKR4Vej5pxHUWRZluAwjPHLly9FpOI3DMM3b974vi+OX47jfP78WcIVlSq04zi+72uLqfiY1Cmltm0HQSAtUilBCz85t6XCOd/qBGbbdiWzcogxlnpF0V6SlKK+Lsx+v28YxuvXrw8PD3d5H5Jl2eHh4fPnz03TnM1mAIDNhSHjq4+6cuSqHMgkkKrUQ9/gCezg4CAIAnFLEUURQmg2m6kxqhZN1OIyZLFYeJ7nOE6lGMRQnDmiKNpwJVKFTpLEMAyxI6CUXtfkxAaTEIIQsixL61aCZoxBCLV+6nqlZbVaaU8hJWhKqWVZMq0V5eLiomKRw/qvMc/zJEmKzUjonueJLA2HQ3lxVHTTLrQUtVxjUeGci/uQXq8HIdw9gX358oUQ8v37910SmO/7xR2MyENxWdfp9QnZ/dfIORf3Yeqeb39/X0xt7lPVqAWBOY4jCAwhpBKYYK+/BLaBwHzfV+ukmmvVI89zSWCj0Wj3BPbq1SvTNI+Pj/8S2E0RmLxILNJYo9H4RQKzLMv3/TiOBUupNSMuDymlhBDbth3Hqe/Xv0xg2iZequv/m8BOTk5evHghCGwwGHieV6QuodcnRE1rnueUUtd1AQCCwLQMq32wlBCth9h0f/z48f37958+fdoe+h9SfdNGnUr7mwAAAABJRU5ErkJggg==;rotation=-30;" parent="rUZGJksImo55Bjjk6Eyn-1" vertex="1">
          <mxGeometry x="158.45273776735598" y="580.2713171508158" width="25.585438701875496" height="71.6392283652514" as="geometry" />
        </mxCell>
        <mxCell id="0zkB9wPyUaOFZc9xkL7J-21" value="" style="shape=image;verticalLabelPosition=bottom;labelBackgroundColor=#ffffff;verticalAlign=top;aspect=fixed;imageAspect=0;image=data:image/png,iVBORw0KGgoAAAANSUhEUgAAACEAAABtCAIAAACgHJ8vAAAIrUlEQVRoBe1aQW/byBV+2NiURNGidm05dgIkVqU4tNGAROW1tAna0IATKJseAlgGYmEXIbBoIRcObKCHNboHEijQUwHq0EvRg3xrb/QhOQ//Aa8FWoC9BL0swL30zILzpNnZEalwF9YG7a5gGCOanI/zvjfvfe+NIc73sW3bsizf91utFiEk30PjuyDn3f9HGIeHh77va5o2F1u9fv16ebm2sLBYLBYlqbC6ej2nhfG2XHy4rnvr1u0m/XS7XYBcT7H3yHW367r1+k8URbEsq9lszgvj/fc/aDabw+FQUZR5YTQazV6vZxjGycnJvDC2trb9yWdeGLVazZp8rhIjDEPf94fDYb/fl6RlAHPyA47jXFxc+L4fRRHzn6yB6FdBEOzs3K/XtwBAksrVqlYoPKBTnwE4kx8LwJTle9WqBvRjGJ3Hj59m4YkYnufhY6qqlcu7dPZnABbA+QTAATijV7oAZrm8qSi3AKBUUsIwTF2KiIE3RVFECBmNRrZtm2a30dgqlX7KMCSprOvto6NPbNv2PO+toSUdQ3gdQoiq3mUYV8k5IgVBMBwOBQzf97MsI7xfHMfjdURR5Pv+5eWlQz+G0TGMzoSY29WqJsuHbB2VysNqVVOUVQCQ5SXD6OztPcEHcQsJMAlGEAQ4Hf29AdChlAo8M6cSBsj/cwDj2rUbOI+iVHiY8Tpc17VtW9fbut4uFpOIpCirnGt1qS+x2Qe4UcrlTVXVCoXk/uXldV1vm2YXHSEFg7+E4yAImGsdHX1SLt9htgIAm37QqbK2BZvznfpVEAS+7zuOc3z8stncVlWdrUOSyjs79x3HGQ6HeRxMXIfneSsrCXWyXKOhokNNL/A/AHgOYCrKbrWqSVIZAJrN7SyjpWAw2lVVq1T0STjh49UAIAkkqqqp6m0kvNX6KC8GIyqOY0KI53m2bT969DEFY34Fg8GJbduEkCAI+EdSx+I6Um+aYyzBze/7vmVZQixBtn3fT30n4eJ4HZiLHMfp9fqG0VldvQkAhUKSPyjzJt35zFbdQuEBDSdJVAcAjD3Hxy8xdwkGTDAIIXgr/b0xIZnNmGeAKbKK81y/fpNfyngdhBAMJwcHR7rertUS9y0WFeo52sR9GVhXkh5M/pRM22hs6XobHWE0GqWsg8fkx5ipCCEvXrwQ+HBdl9APf3/W+N35FR9IDKOzsnJDUXZZLFlYkOv1LcPo5Awn4jpc10XeqBIw6X62vhnYkZUB9TSzUHiwsCDjI1mZUcQIggBpxyxCU8gm5XzA1gHwDDmX5RrLHIPByXfkA8PJNOf5A8nX+TzrFfD6vGIJCtGLiwvHcfr9TxVlk7NVokUdx7m8vPwW+WM4HDqOgyGhVFrCfE7lyD1KRno+V1Wd5Q9eoHiexxsm4ZzpkmvXZABel7CNPWPwtS557711dLByeUnEiOMYtzRmCyZQ8AFVva2qWqnUY7ZaWnqoqmN9VSopTI6gI0xLU9F3eXwcB0Hguq4QSwghWbtheoa3Y2BgFjCmJ5pxJQWDiVLMJbKcuECl8pDZCouB1dWbhtE5OztzHMf3fSHW8pAiBoslHPm8WuDJx3CiAawhc1kwIkYURbZtDwYnut5eXk78BDmnYmcMUCjsM843NjRdb9u27bou/+78WMTg/4bj/1nO4zjGMgI3/97ek2ktahidfv9TVt1mMYGWSGwVRdHx8UvD6GA5CwAoRyYV7ayaE+UoqkUmUIbDIW/zBCMMw1IpqSEow5okYbGMU2c5FfKProUF7i76NEoIEYN9RxmAAsU0u8y1JKlcLD5l+6NUuocvhE51cHBk2/ZoNMqSpm/3qziOPc8T9nmWfGavyw9yYUzXtbNJ5gFS8mAURVjdYiDBXFKtaqXSL5mtZPkekryycsMwOihBZ2hfcR22baOtAapT8pAPJDju0iJ4/ERWJBYxMJG4rnt6espEqSzXBM6xlmWZAwkXTMS+ihjsD/xgNBoJnGe9Mv8UG+fCuGJdgnJkuqkhaFFkW2hhZDl0so4wDHd27mM5i3UNrZSxpLCo5uSbV8g2kwomQGdSCiXk1+tbvV6fGWrsu2EYtlofZbQwLABehTLXOp/0VJJXEZoaBwdHIgb/PQxD1sLATLWxkTT0yuUP2f5AEY3NlTxNjXfBOb8mDPvY0RB8d7ZIECYR1xGGoeM4e3tPWI+sWtWoC1jMVgBdejHpMLBwIuQMHkbE4HTJ2qRZNoPzZ7Q19i1rHJS/hBAkU9fbyPnS0i/YOorFlWIxkaCPHn3MMkfW5kiJu/wa2fiK9zmblx9cJQaWsyhHMH+wzV8s7jNbyfI412J1y1oYWfXOOJagqF1clLkGex7NgJEm0Qx8+73Z3ObNkGBEUYS1LNKL6kRVsYVhUhUq9OEwWD0DMBcXW6xTBgC4+T///AsRg//O6h3mWthv53tk2G9HOYJNjdnpXdwfAh5+vUrOBQB2xmJZ1nRdi2cswiOpX8V1BEGAApf1yCSpNdVnSJqiWNTSk4+k5d7r9bO2oYiRdsby/JtNOIeet1gACeeVij6XM5bFxeSMBTn/wZ6xYDoSmhrYFJ8+YykUkhY45o/Hj5+yftm0KE04Z70MqimxL5olR5hmYAO252eesfC1rK63Ub1iOTs5vkvvyVQqOitw+aZGSk8mdePgGQvWO9P99tPTU3Zw91ZdKu6PVDwuAY8leuptWRfzYty5szk5dvav/nwwjmPXdb8PjGazOd91EELW1tZ2d3fv3r1rGMZcbBWGYaPR2N/fPz8/b7fb9Xo9i97U67k4D4JgfX0dbfXq1au5rIMQsr095/9nIIQYrZ///s///N2f/vXH0d/ntY6fvXjT+nWMPxvmRardsy7m4uMvfwsYAA6ypku9ngvjr6/+MXeMN1/GH/7qPwzG/M2/U98362KudSQt3iA+/CJ68tuvPvvDV2++zJot/XpejPSn8139ESOfnZK7frTVD89W/wVKn8KaNlqxvAAAAABJRU5ErkJggg==;" parent="rUZGJksImo55Bjjk6Eyn-1" vertex="1">
          <mxGeometry x="538.6784221921852" y="282.98060750762704" width="26.080090516778423" height="86.13764362964751" as="geometry" />
        </mxCell>
        <mxCell id="0zkB9wPyUaOFZc9xkL7J-23" value="" style="shape=image;verticalLabelPosition=bottom;labelBackgroundColor=#ffffff;verticalAlign=top;aspect=fixed;imageAspect=0;image=data:image/png,iVBORw0KGgoAAAANSUhEUgAAACEAAABtCAIAAACgHJ8vAAAIrUlEQVRoBe1aQW/byBV+2NiURNGidm05dgIkVqU4tNGAROW1tAna0IATKJseAlgGYmEXIbBoIRcObKCHNboHEijQUwHq0EvRg3xrb/QhOQ//Aa8FWoC9BL0swL30zILzpNnZEalwF9YG7a5gGCOanI/zvjfvfe+NIc73sW3bsizf91utFiEk30PjuyDn3f9HGIeHh77va5o2F1u9fv16ebm2sLBYLBYlqbC6ej2nhfG2XHy4rnvr1u0m/XS7XYBcT7H3yHW367r1+k8URbEsq9lszgvj/fc/aDabw+FQUZR5YTQazV6vZxjGycnJvDC2trb9yWdeGLVazZp8rhIjDEPf94fDYb/fl6RlAHPyA47jXFxc+L4fRRHzn6yB6FdBEOzs3K/XtwBAksrVqlYoPKBTnwE4kx8LwJTle9WqBvRjGJ3Hj59m4YkYnufhY6qqlcu7dPZnABbA+QTAATijV7oAZrm8qSi3AKBUUsIwTF2KiIE3RVFECBmNRrZtm2a30dgqlX7KMCSprOvto6NPbNv2PO+toSUdQ3gdQoiq3mUYV8k5IgVBMBwOBQzf97MsI7xfHMfjdURR5Pv+5eWlQz+G0TGMzoSY29WqJsuHbB2VysNqVVOUVQCQ5SXD6OztPcEHcQsJMAlGEAQ4Hf29AdChlAo8M6cSBsj/cwDj2rUbOI+iVHiY8Tpc17VtW9fbut4uFpOIpCirnGt1qS+x2Qe4UcrlTVXVCoXk/uXldV1vm2YXHSEFg7+E4yAImGsdHX1SLt9htgIAm37QqbK2BZvznfpVEAS+7zuOc3z8stncVlWdrUOSyjs79x3HGQ6HeRxMXIfneSsrCXWyXKOhokNNL/A/AHgOYCrKbrWqSVIZAJrN7SyjpWAw2lVVq1T0STjh49UAIAkkqqqp6m0kvNX6KC8GIyqOY0KI53m2bT969DEFY34Fg8GJbduEkCAI+EdSx+I6Um+aYyzBze/7vmVZQixBtn3fT30n4eJ4HZiLHMfp9fqG0VldvQkAhUKSPyjzJt35zFbdQuEBDSdJVAcAjD3Hxy8xdwkGTDAIIXgr/b0xIZnNmGeAKbKK81y/fpNfyngdhBAMJwcHR7rertUS9y0WFeo52sR9GVhXkh5M/pRM22hs6XobHWE0GqWsg8fkx5ipCCEvXrwQ+HBdl9APf3/W+N35FR9IDKOzsnJDUXZZLFlYkOv1LcPo5Awn4jpc10XeqBIw6X62vhnYkZUB9TSzUHiwsCDjI1mZUcQIggBpxyxCU8gm5XzA1gHwDDmX5RrLHIPByXfkA8PJNOf5A8nX+TzrFfD6vGIJCtGLiwvHcfr9TxVlk7NVokUdx7m8vPwW+WM4HDqOgyGhVFrCfE7lyD1KRno+V1Wd5Q9eoHiexxsm4ZzpkmvXZABel7CNPWPwtS557711dLByeUnEiOMYtzRmCyZQ8AFVva2qWqnUY7ZaWnqoqmN9VSopTI6gI0xLU9F3eXwcB0Hguq4QSwghWbtheoa3Y2BgFjCmJ5pxJQWDiVLMJbKcuECl8pDZCouB1dWbhtE5OztzHMf3fSHW8pAiBoslHPm8WuDJx3CiAawhc1kwIkYURbZtDwYnut5eXk78BDmnYmcMUCjsM843NjRdb9u27bou/+78WMTg/4bj/1nO4zjGMgI3/97ek2ktahidfv9TVt1mMYGWSGwVRdHx8UvD6GA5CwAoRyYV7ayaE+UoqkUmUIbDIW/zBCMMw1IpqSEow5okYbGMU2c5FfKProUF7i76NEoIEYN9RxmAAsU0u8y1JKlcLD5l+6NUuocvhE51cHBk2/ZoNMqSpm/3qziOPc8T9nmWfGavyw9yYUzXtbNJ5gFS8mAURVjdYiDBXFKtaqXSL5mtZPkekryycsMwOihBZ2hfcR22baOtAapT8pAPJDju0iJ4/ERWJBYxMJG4rnt6espEqSzXBM6xlmWZAwkXTMS+ihjsD/xgNBoJnGe9Mv8UG+fCuGJdgnJkuqkhaFFkW2hhZDl0so4wDHd27mM5i3UNrZSxpLCo5uSbV8g2kwomQGdSCiXk1+tbvV6fGWrsu2EYtlofZbQwLABehTLXOp/0VJJXEZoaBwdHIgb/PQxD1sLATLWxkTT0yuUP2f5AEY3NlTxNjXfBOb8mDPvY0RB8d7ZIECYR1xGGoeM4e3tPWI+sWtWoC1jMVgBdejHpMLBwIuQMHkbE4HTJ2qRZNoPzZ7Q19i1rHJS/hBAkU9fbyPnS0i/YOorFlWIxkaCPHn3MMkfW5kiJu/wa2fiK9zmblx9cJQaWsyhHMH+wzV8s7jNbyfI412J1y1oYWfXOOJagqF1clLkGex7NgJEm0Qx8+73Z3ObNkGBEUYS1LNKL6kRVsYVhUhUq9OEwWD0DMBcXW6xTBgC4+T///AsRg//O6h3mWthv53tk2G9HOYJNjdnpXdwfAh5+vUrOBQB2xmJZ1nRdi2cswiOpX8V1BEGAApf1yCSpNdVnSJqiWNTSk4+k5d7r9bO2oYiRdsby/JtNOIeet1gACeeVij6XM5bFxeSMBTn/wZ6xYDoSmhrYFJ8+YykUkhY45o/Hj5+yftm0KE04Z70MqimxL5olR5hmYAO252eesfC1rK63Ub1iOTs5vkvvyVQqOitw+aZGSk8mdePgGQvWO9P99tPTU3Zw91ZdKu6PVDwuAY8leuptWRfzYty5szk5dvav/nwwjmPXdb8PjGazOd91EELW1tZ2d3fv3r1rGMZcbBWGYaPR2N/fPz8/b7fb9Xo9i97U67k4D4JgfX0dbfXq1au5rIMQsr095/9nIIQYrZ///s///N2f/vXH0d/ntY6fvXjT+nWMPxvmRardsy7m4uMvfwsYAA6ypku9ngvjr6/+MXeMN1/GH/7qPwzG/M2/U98362KudSQt3iA+/CJ68tuvPvvDV2++zJot/XpejPSn8139ESOfnZK7frTVD89W/wVKn8KaNlqxvAAAAABJRU5ErkJggg==;" parent="rUZGJksImo55Bjjk6Eyn-1" vertex="1">
          <mxGeometry x="539.6936780086239" y="437.2873537604456" width="26.080090516778423" height="86.13764362964751" as="geometry" />
        </mxCell>
        <mxCell id="0zkB9wPyUaOFZc9xkL7J-24" value="" style="shape=image;verticalLabelPosition=bottom;labelBackgroundColor=#ffffff;verticalAlign=top;aspect=fixed;imageAspect=0;image=data:image/png,iVBORw0KGgoAAAANSUhEUgAAACEAAABtCAIAAACgHJ8vAAAIrUlEQVRoBe1aQW/byBV+2NiURNGidm05dgIkVqU4tNGAROW1tAna0IATKJseAlgGYmEXIbBoIRcObKCHNboHEijQUwHq0EvRg3xrb/QhOQ//Aa8FWoC9BL0swL30zILzpNnZEalwF9YG7a5gGCOanI/zvjfvfe+NIc73sW3bsizf91utFiEk30PjuyDn3f9HGIeHh77va5o2F1u9fv16ebm2sLBYLBYlqbC6ej2nhfG2XHy4rnvr1u0m/XS7XYBcT7H3yHW367r1+k8URbEsq9lszgvj/fc/aDabw+FQUZR5YTQazV6vZxjGycnJvDC2trb9yWdeGLVazZp8rhIjDEPf94fDYb/fl6RlAHPyA47jXFxc+L4fRRHzn6yB6FdBEOzs3K/XtwBAksrVqlYoPKBTnwE4kx8LwJTle9WqBvRjGJ3Hj59m4YkYnufhY6qqlcu7dPZnABbA+QTAATijV7oAZrm8qSi3AKBUUsIwTF2KiIE3RVFECBmNRrZtm2a30dgqlX7KMCSprOvto6NPbNv2PO+toSUdQ3gdQoiq3mUYV8k5IgVBMBwOBQzf97MsI7xfHMfjdURR5Pv+5eWlQz+G0TGMzoSY29WqJsuHbB2VysNqVVOUVQCQ5SXD6OztPcEHcQsJMAlGEAQ4Hf29AdChlAo8M6cSBsj/cwDj2rUbOI+iVHiY8Tpc17VtW9fbut4uFpOIpCirnGt1qS+x2Qe4UcrlTVXVCoXk/uXldV1vm2YXHSEFg7+E4yAImGsdHX1SLt9htgIAm37QqbK2BZvznfpVEAS+7zuOc3z8stncVlWdrUOSyjs79x3HGQ6HeRxMXIfneSsrCXWyXKOhokNNL/A/AHgOYCrKbrWqSVIZAJrN7SyjpWAw2lVVq1T0STjh49UAIAkkqqqp6m0kvNX6KC8GIyqOY0KI53m2bT969DEFY34Fg8GJbduEkCAI+EdSx+I6Um+aYyzBze/7vmVZQixBtn3fT30n4eJ4HZiLHMfp9fqG0VldvQkAhUKSPyjzJt35zFbdQuEBDSdJVAcAjD3Hxy8xdwkGTDAIIXgr/b0xIZnNmGeAKbKK81y/fpNfyngdhBAMJwcHR7rertUS9y0WFeo52sR9GVhXkh5M/pRM22hs6XobHWE0GqWsg8fkx5ipCCEvXrwQ+HBdl9APf3/W+N35FR9IDKOzsnJDUXZZLFlYkOv1LcPo5Awn4jpc10XeqBIw6X62vhnYkZUB9TSzUHiwsCDjI1mZUcQIggBpxyxCU8gm5XzA1gHwDDmX5RrLHIPByXfkA8PJNOf5A8nX+TzrFfD6vGIJCtGLiwvHcfr9TxVlk7NVokUdx7m8vPwW+WM4HDqOgyGhVFrCfE7lyD1KRno+V1Wd5Q9eoHiexxsm4ZzpkmvXZABel7CNPWPwtS557711dLByeUnEiOMYtzRmCyZQ8AFVva2qWqnUY7ZaWnqoqmN9VSopTI6gI0xLU9F3eXwcB0Hguq4QSwghWbtheoa3Y2BgFjCmJ5pxJQWDiVLMJbKcuECl8pDZCouB1dWbhtE5OztzHMf3fSHW8pAiBoslHPm8WuDJx3CiAawhc1kwIkYURbZtDwYnut5eXk78BDmnYmcMUCjsM843NjRdb9u27bou/+78WMTg/4bj/1nO4zjGMgI3/97ek2ktahidfv9TVt1mMYGWSGwVRdHx8UvD6GA5CwAoRyYV7ayaE+UoqkUmUIbDIW/zBCMMw1IpqSEow5okYbGMU2c5FfKProUF7i76NEoIEYN9RxmAAsU0u8y1JKlcLD5l+6NUuocvhE51cHBk2/ZoNMqSpm/3qziOPc8T9nmWfGavyw9yYUzXtbNJ5gFS8mAURVjdYiDBXFKtaqXSL5mtZPkekryycsMwOihBZ2hfcR22baOtAapT8pAPJDju0iJ4/ERWJBYxMJG4rnt6espEqSzXBM6xlmWZAwkXTMS+ihjsD/xgNBoJnGe9Mv8UG+fCuGJdgnJkuqkhaFFkW2hhZDl0so4wDHd27mM5i3UNrZSxpLCo5uSbV8g2kwomQGdSCiXk1+tbvV6fGWrsu2EYtlofZbQwLABehTLXOp/0VJJXEZoaBwdHIgb/PQxD1sLATLWxkTT0yuUP2f5AEY3NlTxNjXfBOb8mDPvY0RB8d7ZIECYR1xGGoeM4e3tPWI+sWtWoC1jMVgBdejHpMLBwIuQMHkbE4HTJ2qRZNoPzZ7Q19i1rHJS/hBAkU9fbyPnS0i/YOorFlWIxkaCPHn3MMkfW5kiJu/wa2fiK9zmblx9cJQaWsyhHMH+wzV8s7jNbyfI412J1y1oYWfXOOJagqF1clLkGex7NgJEm0Qx8+73Z3ObNkGBEUYS1LNKL6kRVsYVhUhUq9OEwWD0DMBcXW6xTBgC4+T///AsRg//O6h3mWthv53tk2G9HOYJNjdnpXdwfAh5+vUrOBQB2xmJZ1nRdi2cswiOpX8V1BEGAApf1yCSpNdVnSJqiWNTSk4+k5d7r9bO2oYiRdsby/JtNOIeet1gACeeVij6XM5bFxeSMBTn/wZ6xYDoSmhrYFJ8+YykUkhY45o/Hj5+yftm0KE04Z70MqimxL5olR5hmYAO252eesfC1rK63Ub1iOTs5vkvvyVQqOitw+aZGSk8mdePgGQvWO9P99tPTU3Zw91ZdKu6PVDwuAY8leuptWRfzYty5szk5dvav/nwwjmPXdb8PjGazOd91EELW1tZ2d3fv3r1rGMZcbBWGYaPR2N/fPz8/b7fb9Xo9i97U67k4D4JgfX0dbfXq1au5rIMQsr095/9nIIQYrZ///s///N2f/vXH0d/ntY6fvXjT+nWMPxvmRardsy7m4uMvfwsYAA6ypku9ngvjr6/+MXeMN1/GH/7qPwzG/M2/U98362KudSQt3iA+/CJ68tuvPvvDV2++zJot/XpejPSn8139ESOfnZK7frTVD89W/wVKn8KaNlqxvAAAAABJRU5ErkJggg==;" parent="rUZGJksImo55Bjjk6Eyn-1" vertex="1">
          <mxGeometry x="537.6631663757463" y="586.2113065393288" width="26.080090516778423" height="86.13764362964751" as="geometry" />
        </mxCell>
        <mxCell id="0zkB9wPyUaOFZc9xkL7J-33" value="" style="shape=crossbar;whiteSpace=wrap;html=1;rounded=1;direction=south;fontSize=11;strokeWidth=2;fillColor=#dae8fc;strokeColor=#6c8ebf;" parent="rUZGJksImo55Bjjk6Eyn-1" vertex="1">
          <mxGeometry x="691.3892109948328" y="132.12285714285713" width="32.488186126042066" height="904.6885714285713" as="geometry" />
        </mxCell>
        <mxCell id="0zkB9wPyUaOFZc9xkL7J-29" value="&lt;h1&gt;&lt;/h1&gt;&lt;span style=&quot;left: 196.353px ; top: 1231.84px ; font-family: sans-serif ; font-size: 10px&quot; dir=&quot;ltr&quot;&gt;&lt;div style=&quot;text-align: center&quot;&gt;&lt;u style=&quot;font-size: 14px&quot;&gt;&lt;b&gt;System Details&lt;/b&gt;&lt;/u&gt;&lt;/div&gt;&lt;div style=&quot;text-align: right&quot;&gt;&lt;font style=&quot;font-size: 10px&quot;&gt;&lt;span dir=&quot;ltr&quot; style=&quot;left: 196.353px ; top: 1231.84px&quot;&gt;V&lt;/span&gt;&lt;span dir=&quot;ltr&quot; style=&quot;left: 206.009px ; top: 1231.84px&quot;&gt;o&lt;/span&gt;&lt;span dir=&quot;ltr&quot; style=&quot;left: 214.061px ; top: 1231.84px&quot;&gt;l&lt;/span&gt;&lt;span dir=&quot;ltr&quot; style=&quot;left: 217.277px ; top: 1231.84px&quot;&gt;t&lt;/span&gt;&lt;span dir=&quot;ltr&quot; style=&quot;left: 221.299px ; top: 1231.84px&quot;&gt;a&lt;/span&gt;&lt;span dir=&quot;ltr&quot; style=&quot;left: 229.351px ; top: 1231.84px&quot;&gt;g&lt;/span&gt;&lt;span dir=&quot;ltr&quot; style=&quot;left: 237.402px ; top: 1231.84px&quot;&gt;e&lt;/span&gt;&lt;span dir=&quot;ltr&quot; style=&quot;left: 245.454px ; top: 1231.84px&quot;&gt; &lt;/span&gt;&lt;span dir=&quot;ltr&quot; style=&quot;left: 249.476px ; top: 1231.84px&quot;&gt;s&lt;/span&gt;&lt;span dir=&quot;ltr&quot; style=&quot;left: 256.715px ; top: 1231.84px&quot;&gt;y&lt;/span&gt;&lt;span dir=&quot;ltr&quot; style=&quot;left: 263.954px ; top: 1231.84px&quot;&gt;s&lt;/span&gt;&lt;span dir=&quot;ltr&quot; style=&quot;left: 271.193px ; top: 1231.84px&quot;&gt;t&lt;/span&gt;&lt;span dir=&quot;ltr&quot; style=&quot;left: 275.215px ; top: 1231.84px&quot;&gt;e&lt;/span&gt;&lt;span dir=&quot;ltr&quot; style=&quot;left: 283.267px ; top: 1231.84px&quot;&gt;m&amp;nbsp;&lt;/span&gt;&lt;span dir=&quot;ltr&quot; style=&quot;left: 295.327px ; top: 1231.84px&quot;&gt;:&amp;nbsp; &amp;nbsp; &amp;nbsp;275&lt;/span&gt;&lt;span dir=&quot;ltr&quot; style=&quot;left: 323.503px ; top: 1231.84px&quot;&gt;k&lt;/span&gt;&lt;span dir=&quot;ltr&quot; style=&quot;left: 330.742px ; top: 1231.84px&quot;&gt;V&lt;/span&gt;&lt;/font&gt;&lt;/div&gt;&lt;/span&gt;&lt;div style=&quot;text-align: right ; font-size: 10px&quot;&gt;&lt;span&gt;&lt;font style=&quot;font-size: 10px&quot;&gt;Thermal Rating : 780MVA&lt;/font&gt;&lt;/span&gt;&lt;/div&gt;&lt;span style=&quot;left: 196.354px ; top: 1273.94px ; font-family: sans-serif ; font-size: 10px&quot; dir=&quot;ltr&quot;&gt;&lt;font style=&quot;font-size: 10px&quot;&gt;&lt;div style=&quot;text-align: right&quot;&gt;&lt;span dir=&quot;ltr&quot; style=&quot;left: 196.354px ; top: 1273.94px&quot;&gt;S&lt;/span&gt;&lt;span dir=&quot;ltr&quot; style=&quot;left: 206.01px ; top: 1273.94px&quot;&gt;p&lt;/span&gt;&lt;span dir=&quot;ltr&quot; style=&quot;left: 214.061px ; top: 1273.94px&quot;&gt;a&lt;/span&gt;&lt;span dir=&quot;ltr&quot; style=&quot;left: 222.113px ; top: 1273.94px&quot;&gt;n&lt;/span&gt;&lt;span dir=&quot;ltr&quot; style=&quot;left: 230.164px ; top: 1273.94px&quot;&gt; &lt;/span&gt;&lt;span dir=&quot;ltr&quot; style=&quot;left: 234.187px ; top: 1273.94px&quot;&gt;l&lt;/span&gt;&lt;span dir=&quot;ltr&quot; style=&quot;left: 237.403px ; top: 1273.94px&quot;&gt;e&lt;/span&gt;&lt;span dir=&quot;ltr&quot; style=&quot;left: 245.455px ; top: 1273.94px&quot;&gt;n&lt;/span&gt;&lt;span dir=&quot;ltr&quot; style=&quot;left: 253.506px ; top: 1273.94px&quot;&gt;g&lt;/span&gt;&lt;span dir=&quot;ltr&quot; style=&quot;left: 261.558px ; top: 1273.94px&quot;&gt;t&lt;/span&gt;&lt;span dir=&quot;ltr&quot; style=&quot;left: 265.58px ; top: 1273.94px&quot;&gt;h&lt;/span&gt;&lt;span dir=&quot;ltr&quot; style=&quot;left: 273.632px ; top: 1273.94px&quot;&gt;&amp;nbsp;:&amp;nbsp; &amp;nbsp; &amp;nbsp; 366&lt;/span&gt;&lt;span dir=&quot;ltr&quot; style=&quot;left: 301.809px ; top: 1273.94px&quot;&gt;m&lt;/span&gt;&lt;/div&gt;&lt;div style=&quot;text-align: right&quot;&gt;&lt;span dir=&quot;ltr&quot; style=&quot;left: 301.809px ; top: 1273.94px&quot;&gt;Shield Angle :&amp;nbsp; &amp;nbsp; &amp;nbsp; &amp;nbsp; &amp;nbsp; 30&lt;sup&gt;o&lt;/sup&gt;&lt;/span&gt;&lt;/div&gt;&lt;div style=&quot;text-align: right&quot;&gt;&lt;span dir=&quot;ltr&quot; style=&quot;left: 301.809px ; top: 1273.94px&quot;&gt;&lt;span dir=&quot;ltr&quot; style=&quot;left: 284.787px ; top: 1245.87px&quot;&gt;A&lt;/span&gt;&lt;span dir=&quot;ltr&quot; style=&quot;left: 294.443px ; top: 1245.87px&quot;&gt;A&lt;/span&gt;&lt;span dir=&quot;ltr&quot; style=&quot;left: 304.099px ; top: 1245.87px&quot;&gt;A&lt;/span&gt;&lt;span dir=&quot;ltr&quot; style=&quot;left: 313.755px ; top: 1245.87px&quot;&gt;C&lt;/span&gt;&lt;span dir=&quot;ltr&quot; style=&quot;left: 324.21px ; top: 1245.87px&quot;&gt;&amp;nbsp;Rubus&amp;nbsp;&lt;/span&gt;&lt;span dir=&quot;ltr&quot; style=&quot;left: 196.354px ; top: 1259.91px&quot;&gt;c&lt;/span&gt;&lt;span dir=&quot;ltr&quot; style=&quot;left: 203.592px ; top: 1259.91px&quot;&gt;o&lt;/span&gt;&lt;span dir=&quot;ltr&quot; style=&quot;left: 211.644px ; top: 1259.91px&quot;&gt;n&lt;/span&gt;&lt;span dir=&quot;ltr&quot; style=&quot;left: 219.696px ; top: 1259.91px&quot;&gt;d&lt;/span&gt;&lt;span dir=&quot;ltr&quot; style=&quot;left: 227.747px ; top: 1259.91px&quot;&gt;u&lt;/span&gt;&lt;span dir=&quot;ltr&quot; style=&quot;left: 235.799px ; top: 1259.91px&quot;&gt;c&lt;/span&gt;&lt;span dir=&quot;ltr&quot; style=&quot;left: 243.038px ; top: 1259.91px&quot;&gt;t&lt;/span&gt;&lt;span dir=&quot;ltr&quot; style=&quot;left: 247.06px ; top: 1259.91px&quot;&gt;o&lt;/span&gt;&lt;span dir=&quot;ltr&quot; style=&quot;left: 255.112px ; top: 1259.91px&quot;&gt;r&lt;/span&gt;&lt;/span&gt;&lt;/div&gt;&lt;/font&gt;&lt;/span&gt;&lt;div style=&quot;text-align: right ; font-size: 10px&quot;&gt;&lt;span&gt;&lt;font style=&quot;font-size: 10px&quot;&gt;Using Draw.io, Version : 1.0&lt;/font&gt;&lt;/span&gt;&lt;/div&gt;&lt;span style=&quot;left: 216.479px ; top: 1316.05px ; font-family: sans-serif ; font-size: 10px&quot; dir=&quot;ltr&quot;&gt;&lt;font style=&quot;font-size: 10px&quot;&gt;&amp;nbsp;&lt;/font&gt;&lt;br&gt;&lt;/span&gt;" style="text;html=1;strokeColor=none;fillColor=none;spacing=5;spacingTop=-20;whiteSpace=wrap;overflow=hidden;rounded=0;" parent="rUZGJksImo55Bjjk6Eyn-1" vertex="1">
          <mxGeometry x="568.9925576719523" y="1.0089298042060517" width="191.00744232804757" height="133.40584191443074" as="geometry" />
        </mxCell>
        <mxCell id="0zkB9wPyUaOFZc9xkL7J-77" value="" style="endArrow=none;html=1;rounded=0;fontSize=14;strokeWidth=2;" parent="rUZGJksImo55Bjjk6Eyn-1" edge="1">
          <mxGeometry width="50" height="50" relative="1" as="geometry">
            <mxPoint x="690.3739551783939" y="280.3828571428571" as="sourcePoint" />
            <mxPoint x="707.6333040578537" y="280.3828571428571" as="targetPoint" />
          </mxGeometry>
        </mxCell>
        <mxCell id="0zkB9wPyUaOFZc9xkL7J-80" value="" style="endArrow=none;dashed=1;html=1;dashPattern=1 3;strokeWidth=2;rounded=0;fontSize=14;fillColor=#dae8fc;strokeColor=#6c8ebf;" parent="rUZGJksImo55Bjjk6Eyn-1" edge="1">
          <mxGeometry width="50" height="50" relative="1" as="geometry">
            <mxPoint x="561.8831790498976" y="282.98497142857144" as="sourcePoint" />
            <mxPoint x="561.4364664906644" y="212.8085714285714" as="targetPoint" />
          </mxGeometry>
        </mxCell>
        <mxCell id="0zkB9wPyUaOFZc9xkL7J-88" value="" style="endArrow=classic;html=1;rounded=0;fontSize=14;strokeWidth=2;fillColor=#dae8fc;strokeColor=#6c8ebf;" parent="rUZGJksImo55Bjjk6Eyn-1" edge="1">
          <mxGeometry relative="1" as="geometry">
            <mxPoint x="405.08707075908706" y="220.87714285714284" as="sourcePoint" />
            <mxPoint x="560.4212106742257" y="220.87714285714284" as="targetPoint" />
          </mxGeometry>
        </mxCell>
        <mxCell id="0zkB9wPyUaOFZc9xkL7J-89" value="&lt;span style=&quot;font-size: 12px&quot;&gt;3.001m&lt;/span&gt;" style="edgeLabel;resizable=0;html=1;align=center;verticalAlign=middle;fontSize=14;strokeWidth=3;fillColor=none;" parent="0zkB9wPyUaOFZc9xkL7J-88" connectable="0" vertex="1">
          <mxGeometry relative="1" as="geometry" />
        </mxCell>
        <mxCell id="0zkB9wPyUaOFZc9xkL7J-90" value="" style="endArrow=classic;html=1;rounded=0;fontSize=14;strokeWidth=2;fillColor=#f5f5f5;strokeColor=#666666;" parent="rUZGJksImo55Bjjk6Eyn-1" edge="1">
          <mxGeometry relative="1" as="geometry">
            <mxPoint x="313.71404727959373" y="178.51714285714283" as="sourcePoint" />
            <mxPoint x="400.01079167689295" y="178.51714285714283" as="targetPoint" />
          </mxGeometry>
        </mxCell>
        <mxCell id="0zkB9wPyUaOFZc9xkL7J-91" value="&lt;font style=&quot;font-size: 12px&quot;&gt;2.7m&lt;/font&gt;" style="edgeLabel;resizable=0;html=1;align=center;verticalAlign=middle;fontSize=14;strokeWidth=3;fillColor=none;" parent="0zkB9wPyUaOFZc9xkL7J-90" connectable="0" vertex="1">
          <mxGeometry relative="1" as="geometry" />
        </mxCell>
        <mxCell id="0zkB9wPyUaOFZc9xkL7J-92" value="" style="endArrow=classic;html=1;rounded=0;fontSize=14;strokeWidth=2;fillColor=#f8cecc;strokeColor=#b85450;" parent="rUZGJksImo55Bjjk6Eyn-1" edge="1">
          <mxGeometry relative="1" as="geometry">
            <mxPoint x="307.6225123809608" y="220.87714285714284" as="sourcePoint" />
            <mxPoint x="152.2883724658222" y="220.87714285714284" as="targetPoint" />
            <Array as="points">
              <mxPoint x="219.29525635078394" y="220.87714285714284" />
            </Array>
          </mxGeometry>
        </mxCell>
        <mxCell id="0zkB9wPyUaOFZc9xkL7J-93" value="&lt;font style=&quot;font-size: 12px&quot;&gt;3.053m&lt;/font&gt;" style="edgeLabel;resizable=0;html=1;align=center;verticalAlign=middle;fontSize=14;strokeWidth=3;fillColor=none;" parent="0zkB9wPyUaOFZc9xkL7J-92" connectable="0" vertex="1">
          <mxGeometry relative="1" as="geometry" />
        </mxCell>
        <mxCell id="0zkB9wPyUaOFZc9xkL7J-94" value="" style="endArrow=none;dashed=1;html=1;dashPattern=1 3;strokeWidth=2;rounded=0;fontSize=14;fillColor=#d5e8d4;strokeColor=#82b366;" parent="rUZGJksImo55Bjjk6Eyn-1" edge="1">
          <mxGeometry width="50" height="50" relative="1" as="geometry">
            <mxPoint x="151.71982920861652" y="282.98497142857144" as="sourcePoint" />
            <mxPoint x="151.27311664938338" y="212.8085714285714" as="targetPoint" />
          </mxGeometry>
        </mxCell>
        <mxCell id="PgW7Xi4HqRTmnOHAc_zG-1" value="" style="endArrow=none;html=1;rounded=0;strokeWidth=1;dashed=1;" parent="rUZGJksImo55Bjjk6Eyn-1" edge="1">
          <mxGeometry width="50" height="50" relative="1" as="geometry">
            <mxPoint x="149.24260501650573" y="659.6057142857142" as="sourcePoint" />
            <mxPoint x="149.24260501650573" y="584.7898857142857" as="targetPoint" />
          </mxGeometry>
        </mxCell>
        <mxCell id="PgW7Xi4HqRTmnOHAc_zG-2" value="" style="verticalLabelPosition=bottom;verticalAlign=top;html=1;shape=mxgraph.basic.arc;startAngle=0.39956059600053245;endAngle=0.4702874701783941;rotation=15;" parent="rUZGJksImo55Bjjk6Eyn-1" vertex="1">
          <mxGeometry x="99.88086722125057" y="545.7682571428571" width="108.63237235895316" height="98.83999999999999" as="geometry" />
        </mxCell>
        <mxCell id="PgW7Xi4HqRTmnOHAc_zG-3" value="" style="curved=1;endArrow=oval;html=1;rounded=0;strokeWidth=2;startArrow=none;endFill=0;exitX=1;exitY=1;exitDx=0;exitDy=0;entryX=0.696;entryY=0.491;entryDx=0;entryDy=0;entryPerimeter=0;" parent="rUZGJksImo55Bjjk6Eyn-1" edge="1">
          <mxGeometry width="50" height="50" relative="1" as="geometry">
            <mxPoint x="549.8943483442339" y="667.423474517933" as="sourcePoint" />
            <mxPoint x="707.9256977329882" y="763.8032457142855" as="targetPoint" />
            <Array as="points">
              <mxPoint x="550.2686525098375" y="717.0942857142857" />
              <mxPoint x="601.0314433317782" y="771.5571428571428" />
              <mxPoint x="668.03832721674" y="785.6771428571427" />
            </Array>
          </mxGeometry>
        </mxCell>
        <mxCell id="PgW7Xi4HqRTmnOHAc_zG-5" value="" style="endArrow=none;html=1;rounded=0;fontSize=14;strokeWidth=2;" parent="rUZGJksImo55Bjjk6Eyn-1" edge="1">
          <mxGeometry width="50" height="50" relative="1" as="geometry">
            <mxPoint x="12.183069797265775" y="279.3742857142857" as="sourcePoint" />
            <mxPoint x="29.442418676725623" y="279.3742857142857" as="targetPoint" />
          </mxGeometry>
        </mxCell>
        <mxCell id="PgW7Xi4HqRTmnOHAc_zG-8" value="" style="ellipse;whiteSpace=wrap;html=1;strokeWidth=2;fillColor=#f5f5f5;fontColor=#333333;strokeColor=#666666;" parent="rUZGJksImo55Bjjk6Eyn-1" vertex="1">
          <mxGeometry x="154.5828506109739" y="508.9251428571428" width="6.091534898632887" height="6.051428571428571" as="geometry" />
        </mxCell>
        <mxCell id="PgW7Xi4HqRTmnOHAc_zG-9" value="" style="ellipse;whiteSpace=wrap;html=1;strokeWidth=2;fillColor=#f5f5f5;fontColor=#333333;strokeColor=#666666;" parent="rUZGJksImo55Bjjk6Eyn-1" vertex="1">
          <mxGeometry x="156.10573433563212" y="354.62379999999996" width="6.091534898632887" height="6.051428571428571" as="geometry" />
        </mxCell>
        <mxCell id="PgW7Xi4HqRTmnOHAc_zG-10" value="" style="ellipse;whiteSpace=wrap;html=1;strokeWidth=2;fillColor=#f5f5f5;fontColor=#333333;strokeColor=#666666;" parent="rUZGJksImo55Bjjk6Eyn-1" vertex="1">
          <mxGeometry x="188.26903860041378" y="647.6339714285714" width="6.091534898632887" height="6.051428571428571" as="geometry" />
        </mxCell>
        <mxCell id="PgW7Xi4HqRTmnOHAc_zG-11" value="" style="ellipse;whiteSpace=wrap;html=1;strokeWidth=2;fillColor=#f5f5f5;fontColor=#333333;strokeColor=#666666;" parent="rUZGJksImo55Bjjk6Eyn-1" vertex="1">
          <mxGeometry x="547.6695976197542" y="359.0514285714285" width="6.091534898632887" height="6.051428571428571" as="geometry" />
        </mxCell>
        <mxCell id="PgW7Xi4HqRTmnOHAc_zG-12" value="" style="ellipse;whiteSpace=wrap;html=1;strokeWidth=2;fillColor=#f5f5f5;fontColor=#333333;strokeColor=#666666;" parent="rUZGJksImo55Bjjk6Eyn-1" vertex="1">
          <mxGeometry x="548.684853436193" y="513.968" width="6.091534898632887" height="6.051428571428571" as="geometry" />
        </mxCell>
        <mxCell id="PgW7Xi4HqRTmnOHAc_zG-13" value="" style="ellipse;whiteSpace=wrap;html=1;strokeWidth=2;fillColor=#f5f5f5;fontColor=#333333;strokeColor=#666666;" parent="rUZGJksImo55Bjjk6Eyn-1" vertex="1">
          <mxGeometry x="546.725409710466" y="660.2411142857142" width="6.091534898632887" height="6.051428571428571" as="geometry" />
        </mxCell>
        <mxCell id="PgW7Xi4HqRTmnOHAc_zG-15" value="&lt;font style=&quot;font-size: 10px&quot;&gt;SA = 23.113&lt;sup&gt;o&lt;/sup&gt;&lt;/font&gt;" style="text;html=1;strokeColor=none;fillColor=none;align=center;verticalAlign=middle;whiteSpace=wrap;rounded=0;" parent="rUZGJksImo55Bjjk6Eyn-1" vertex="1">
          <mxGeometry x="132.99851195348472" y="652.6768285714285" width="86.29674439729924" height="30.257142857142853" as="geometry" />
        </mxCell>
        <mxCell id="PgW7Xi4HqRTmnOHAc_zG-19" value="&lt;font style=&quot;font-size: 10px&quot; color=&quot;#3333ff&quot;&gt;0.35m&lt;/font&gt;" style="text;html=1;strokeColor=none;fillColor=none;align=center;verticalAlign=middle;whiteSpace=wrap;rounded=0;" parent="rUZGJksImo55Bjjk6Eyn-1" vertex="1">
          <mxGeometry x="564.928946499214" y="270.57954285714277" width="89.34251184661568" height="30.257142857142853" as="geometry" />
        </mxCell>
        <mxCell id="PgW7Xi4HqRTmnOHAc_zG-20" value="14&lt;sup&gt;o&lt;/sup&gt;" style="text;html=1;strokeColor=none;fillColor=none;align=center;verticalAlign=middle;whiteSpace=wrap;rounded=0;" parent="rUZGJksImo55Bjjk6Eyn-1" vertex="1">
          <mxGeometry x="179.0708209034781" y="552.6971428571428" width="60.91534898632887" height="30.257142857142853" as="geometry" />
        </mxCell>
        <mxCell id="PgW7Xi4HqRTmnOHAc_zG-22" value="12&lt;sup&gt;o&lt;/sup&gt;" style="text;html=1;strokeColor=none;fillColor=none;align=center;verticalAlign=middle;whiteSpace=wrap;rounded=0;" parent="rUZGJksImo55Bjjk6Eyn-1" vertex="1">
          <mxGeometry x="183.13184416923337" y="405.44571428571425" width="60.91534898632887" height="30.257142857142853" as="geometry" />
        </mxCell>
        <mxCell id="PgW7Xi4HqRTmnOHAc_zG-23" value="12&lt;sup&gt;o&lt;/sup&gt;" style="text;html=1;strokeColor=none;fillColor=none;align=center;verticalAlign=middle;whiteSpace=wrap;rounded=0;" parent="rUZGJksImo55Bjjk6Eyn-1" vertex="1">
          <mxGeometry x="188.20812325142745" y="253.4338285714285" width="60.91534898632887" height="30.257142857142853" as="geometry" />
        </mxCell>
        <mxCell id="PgW7Xi4HqRTmnOHAc_zG-25" value="" style="verticalLabelPosition=bottom;verticalAlign=top;html=1;shape=mxgraph.basic.arc;startAngle=0.39956059600053245;endAngle=0.4702874701783941;rotation=-75;" parent="rUZGJksImo55Bjjk6Eyn-1" vertex="1">
          <mxGeometry x="98.76408582316789" y="536.4591428571428" width="96.06350535144064" height="87.74571428571427" as="geometry" />
        </mxCell>
        <mxCell id="PgW7Xi4HqRTmnOHAc_zG-26" value="" style="verticalLabelPosition=bottom;verticalAlign=top;html=1;shape=mxgraph.basic.arc;startAngle=0.39956059600053245;endAngle=0.4702874701783941;rotation=-75;" parent="rUZGJksImo55Bjjk6Eyn-1" vertex="1">
          <mxGeometry x="103.31243188081376" y="388.29999999999995" width="96.06350535144064" height="87.74571428571427" as="geometry" />
        </mxCell>
        <mxCell id="PgW7Xi4HqRTmnOHAc_zG-27" value="" style="verticalLabelPosition=bottom;verticalAlign=top;html=1;shape=mxgraph.basic.arc;startAngle=0.39956059600053245;endAngle=0.4702874701783941;rotation=-75;" parent="rUZGJksImo55Bjjk6Eyn-1" vertex="1">
          <mxGeometry x="111.11974910922824" y="234.99714285714282" width="96.06350535144064" height="87.74571428571427" as="geometry" />
        </mxCell>
        <mxCell id="PgW7Xi4HqRTmnOHAc_zG-29" value="Ground Clearance &lt;br&gt;7.0m / 7.4m &lt;br&gt;(No road / Road)" style="text;html=1;strokeColor=none;fillColor=none;align=center;verticalAlign=middle;whiteSpace=wrap;rounded=0;" parent="rUZGJksImo55Bjjk6Eyn-1" vertex="1">
          <mxGeometry x="567.5280013892974" y="865.3542857142857" width="167.5172097124044" height="68.58285714285714" as="geometry" />
        </mxCell>
        <mxCell id="OTYSbuGTZYwLDbRZLdNi-1" value="&lt;h1&gt;&lt;/h1&gt;&lt;span style=&quot;left: 196.353px ; top: 1231.84px ; font-family: sans-serif&quot; dir=&quot;ltr&quot;&gt;&lt;div style=&quot;text-align: center&quot;&gt;&lt;u style=&quot;font-size: 14px&quot;&gt;&lt;b&gt;Read Me&lt;/b&gt;&lt;/u&gt;&lt;/div&gt;&lt;/span&gt;&lt;span style=&quot;left: 216.479px ; top: 1316.05px ; font-family: sans-serif&quot; dir=&quot;ltr&quot;&gt;&lt;div style=&quot;text-align: justify&quot;&gt;&lt;font style=&quot;font-size: 10px&quot;&gt;The right side of purple dotted axis has the design for Rod Composite Insulator, and to the left is Pin &amp;amp; Cap insulator. Swing Angle and External Clearances are same in both cases. All crossarms have same length&lt;/font&gt;&lt;/div&gt;&lt;/span&gt;" style="text;html=1;strokeColor=none;fillColor=none;spacing=5;spacingTop=-20;whiteSpace=wrap;overflow=hidden;rounded=0;" parent="rUZGJksImo55Bjjk6Eyn-1" vertex="1">
          <mxGeometry x="10.274388862360809" width="205.9751000391067" height="132.12285714285713" as="geometry" />
        </mxCell>
        <mxCell id="OTYSbuGTZYwLDbRZLdNi-3" value="&lt;font style=&quot;font-size: 10px&quot; color=&quot;#ff6666&quot;&gt;0.35m&lt;/font&gt;" style="text;html=1;strokeColor=none;fillColor=none;align=center;verticalAlign=middle;whiteSpace=wrap;rounded=0;" parent="rUZGJksImo55Bjjk6Eyn-1" vertex="1">
          <mxGeometry x="53.87962617840788" y="268.56239999999997" width="99.49507001100383" height="30.257142857142853" as="geometry" />
        </mxCell>
        <mxCell id="OTYSbuGTZYwLDbRZLdNi-4" value="" style="endArrow=none;html=1;rounded=0;fontSize=14;strokeWidth=2;" parent="rUZGJksImo55Bjjk6Eyn-1" edge="1">
          <mxGeometry width="50" height="50" relative="1" as="geometry">
            <mxPoint x="117.76967470690249" y="355.0171428571428" as="sourcePoint" />
            <mxPoint x="143.15107011787285" y="355.0171428571428" as="targetPoint" />
          </mxGeometry>
        </mxCell>
        <mxCell id="OTYSbuGTZYwLDbRZLdNi-7" value="" style="endArrow=none;html=1;rounded=0;fontSize=14;strokeWidth=2;" parent="rUZGJksImo55Bjjk6Eyn-1" edge="1">
          <mxGeometry width="50" height="50" relative="1" as="geometry">
            <mxPoint x="689.3586993619551" y="663.6399999999999" as="sourcePoint" />
            <mxPoint x="706.618048241415" y="663.6399999999999" as="targetPoint" />
          </mxGeometry>
        </mxCell>
        <mxCell id="OTYSbuGTZYwLDbRZLdNi-8" value="" style="ellipse;whiteSpace=wrap;html=1;strokeWidth=4;fillColor=#f5f5f5;fontColor=#333333;strokeColor=#666666;" parent="rUZGJksImo55Bjjk6Eyn-1" vertex="1">
          <mxGeometry x="351.93842876851517" y="125.06285714285713" width="6.091534898632887" height="6.051428571428571" as="geometry" />
        </mxCell>
        <mxCell id="OTYSbuGTZYwLDbRZLdNi-10" value="&lt;font color=&quot;#3333ff&quot;&gt;3.548m&lt;/font&gt;" style="text;html=1;strokeColor=none;fillColor=none;align=center;verticalAlign=middle;whiteSpace=wrap;rounded=0;" parent="rUZGJksImo55Bjjk6Eyn-1" vertex="1">
          <mxGeometry x="649.7637225208414" y="179.52571428571423" width="60.91534898632887" height="30.257142857142853" as="geometry" />
        </mxCell>
        <mxCell id="OTYSbuGTZYwLDbRZLdNi-11" value="&lt;font color=&quot;#ff6666&quot;&gt;3.505m&lt;/font&gt;" style="text;html=1;strokeColor=none;fillColor=none;align=center;verticalAlign=middle;whiteSpace=wrap;rounded=0;" parent="rUZGJksImo55Bjjk6Eyn-1" vertex="1">
          <mxGeometry x="5.076279082194073" y="179.52571428571423" width="60.91534898632887" height="30.257142857142853" as="geometry" />
        </mxCell>
        <mxCell id="OTYSbuGTZYwLDbRZLdNi-12" value="" style="endArrow=none;html=1;rounded=0;fontSize=14;strokeWidth=3;" parent="rUZGJksImo55Bjjk6Eyn-1" edge="1">
          <mxGeometry width="50" height="50" relative="1" as="geometry">
            <mxPoint x="150.70457339217768" y="583.1862571428571" as="sourcePoint" />
            <mxPoint x="184.20801533465857" y="583.1862571428571" as="targetPoint" />
          </mxGeometry>
        </mxCell>
        <mxCell id="OTYSbuGTZYwLDbRZLdNi-13" value="" style="endArrow=none;html=1;rounded=0;fontSize=14;strokeWidth=2;" parent="rUZGJksImo55Bjjk6Eyn-1" edge="1">
          <mxGeometry width="50" height="50" relative="1" as="geometry">
            <mxPoint x="689.3586993619551" y="436.71142857142854" as="sourcePoint" />
            <mxPoint x="706.618048241415" y="436.71142857142854" as="targetPoint" />
          </mxGeometry>
        </mxCell>
        <mxCell id="OTYSbuGTZYwLDbRZLdNi-14" value="" style="endArrow=none;html=1;rounded=0;fontSize=14;strokeWidth=2;" parent="rUZGJksImo55Bjjk6Eyn-1" edge="1">
          <mxGeometry width="50" height="50" relative="1" as="geometry">
            <mxPoint x="12.183069797265775" y="437.71999999999997" as="sourcePoint" />
            <mxPoint x="28.427162860287037" y="438.1536857142856" as="targetPoint" />
          </mxGeometry>
        </mxCell>
        <mxCell id="OTYSbuGTZYwLDbRZLdNi-15" value="" style="endArrow=none;html=1;rounded=0;fontSize=14;strokeWidth=2;" parent="rUZGJksImo55Bjjk6Eyn-1" edge="1">
          <mxGeometry width="50" height="50" relative="1" as="geometry">
            <mxPoint x="10.152558164387916" y="582.9542857142856" as="sourcePoint" />
            <mxPoint x="29.442418676725623" y="582.9542857142857" as="targetPoint" />
          </mxGeometry>
        </mxCell>
        <mxCell id="OTYSbuGTZYwLDbRZLdNi-19" value="" style="endArrow=classic;html=1;rounded=0;fontSize=14;strokeWidth=2;fillColor=#dae8fc;strokeColor=#6c8ebf;" parent="rUZGJksImo55Bjjk6Eyn-1" edge="1">
          <mxGeometry relative="1" as="geometry">
            <mxPoint x="582.7568386358796" y="350.9828571428571" as="sourcePoint" />
            <mxPoint x="582.7568386358796" y="293.4741142857143" as="targetPoint" />
          </mxGeometry>
        </mxCell>
        <mxCell id="OTYSbuGTZYwLDbRZLdNi-20" value="&lt;span style=&quot;font-size: 12px&quot;&gt;&lt;font color=&quot;#3333ff&quot;&gt;3.607m&lt;/font&gt;&lt;/span&gt;" style="edgeLabel;resizable=0;html=1;align=center;verticalAlign=middle;fontSize=14;strokeWidth=3;fillColor=none;" parent="OTYSbuGTZYwLDbRZLdNi-19" connectable="0" vertex="1">
          <mxGeometry relative="1" as="geometry">
            <mxPoint x="10" y="-2" as="offset" />
          </mxGeometry>
        </mxCell>
        <mxCell id="OTYSbuGTZYwLDbRZLdNi-21" value="" style="endArrow=classic;html=1;rounded=0;fontSize=14;strokeWidth=2;fillColor=#ffe6cc;strokeColor=#d79b00;" parent="rUZGJksImo55Bjjk6Eyn-1" edge="1">
          <mxGeometry relative="1" as="geometry">
            <mxPoint x="121.83069797265775" y="356.02571428571423" as="sourcePoint" />
            <mxPoint x="121.83069797265775" y="290.4685714285714" as="targetPoint" />
          </mxGeometry>
        </mxCell>
        <mxCell id="OTYSbuGTZYwLDbRZLdNi-22" value="&lt;span style=&quot;color: rgb(255 , 102 , 102) ; font-size: 12px ; background-color: rgb(248 , 249 , 250)&quot;&gt;3.74m&lt;/span&gt;" style="edgeLabel;resizable=0;html=1;align=center;verticalAlign=middle;fontSize=14;strokeWidth=3;fillColor=none;" parent="OTYSbuGTZYwLDbRZLdNi-21" connectable="0" vertex="1">
          <mxGeometry relative="1" as="geometry">
            <mxPoint y="1" as="offset" />
          </mxGeometry>
        </mxCell>
        <mxCell id="OTYSbuGTZYwLDbRZLdNi-27" value="&lt;font color=&quot;#3333ff&quot;&gt;5.59m&lt;/font&gt;" style="text;html=1;strokeColor=none;fillColor=none;align=center;verticalAlign=middle;whiteSpace=wrap;rounded=0;" parent="rUZGJksImo55Bjjk6Eyn-1" vertex="1">
          <mxGeometry x="654.8400016030354" y="504.890857142857" width="60.91534898632887" height="30.257142857142853" as="geometry" />
        </mxCell>
        <mxCell id="OTYSbuGTZYwLDbRZLdNi-28" value="&lt;font color=&quot;#ff6666&quot;&gt;5.727m&lt;/font&gt;" style="text;html=1;strokeColor=none;fillColor=none;align=center;verticalAlign=middle;whiteSpace=wrap;rounded=0;" parent="rUZGJksImo55Bjjk6Eyn-1" vertex="1">
          <mxGeometry x="7.106790715071702" y="507.2912571428571" width="60.91534898632887" height="30.257142857142853" as="geometry" />
        </mxCell>
        <mxCell id="OTYSbuGTZYwLDbRZLdNi-29" value="Sag = 11.828m" style="text;html=1;strokeColor=none;fillColor=none;align=center;verticalAlign=middle;whiteSpace=wrap;rounded=0;" parent="rUZGJksImo55Bjjk6Eyn-1" vertex="1">
          <mxGeometry x="599.0009316989006" y="694.9057142857142" width="113.70865144114723" height="30.257142857142853" as="geometry" />
        </mxCell>
        <mxCell id="OTYSbuGTZYwLDbRZLdNi-31" value="" style="endArrow=none;html=1;rounded=0;fontSize=14;strokeWidth=2;" parent="rUZGJksImo55Bjjk6Eyn-1" edge="1">
          <mxGeometry width="50" height="50" relative="1" as="geometry">
            <mxPoint x="118.7849305233413" y="290.4685714285715" as="sourcePoint" />
            <mxPoint x="144.16632593431166" y="290.4685714285715" as="targetPoint" />
          </mxGeometry>
        </mxCell>
        <mxCell id="OTYSbuGTZYwLDbRZLdNi-33" value="" style="endArrow=none;html=1;rounded=0;fontSize=14;strokeWidth=2;" parent="rUZGJksImo55Bjjk6Eyn-1" edge="1">
          <mxGeometry width="50" height="50" relative="1" as="geometry">
            <mxPoint x="568.5432572057362" y="293.4942857142857" as="sourcePoint" />
            <mxPoint x="591.894140983829" y="293.4942857142857" as="targetPoint" />
          </mxGeometry>
        </mxCell>
        <mxCell id="OTYSbuGTZYwLDbRZLdNi-34" value="&lt;font color=&quot;#3333ff&quot;&gt;5.545m&lt;/font&gt;" style="text;html=1;strokeColor=none;fillColor=none;align=center;verticalAlign=middle;whiteSpace=wrap;rounded=0;" parent="rUZGJksImo55Bjjk6Eyn-1" vertex="1">
          <mxGeometry x="651.794234153719" y="341.6434857142856" width="60.91534898632887" height="30.257142857142853" as="geometry" />
        </mxCell>
        <mxCell id="OTYSbuGTZYwLDbRZLdNi-36" value="&lt;span style=&quot;color: rgb(255 , 102 , 102) ; background-color: rgb(255 , 255 , 255)&quot;&gt;5.681m&lt;/span&gt;" style="text;html=1;strokeColor=none;fillColor=none;align=center;verticalAlign=middle;whiteSpace=wrap;rounded=0;" parent="rUZGJksImo55Bjjk6Eyn-1" vertex="1">
          <mxGeometry x="6.091534898632887" y="347.9571428571428" width="60.91534898632887" height="30.257142857142853" as="geometry" />
        </mxCell>
        <mxCell id="OTYSbuGTZYwLDbRZLdNi-37" value="" style="endArrow=none;html=1;rounded=0;fontSize=14;strokeWidth=2;" parent="rUZGJksImo55Bjjk6Eyn-1" edge="1">
          <mxGeometry width="50" height="50" relative="1" as="geometry">
            <mxPoint x="119.80018633978013" y="280.38285714285723" as="sourcePoint" />
            <mxPoint x="145.1815817507505" y="280.38285714285723" as="targetPoint" />
          </mxGeometry>
        </mxCell>
        <mxCell id="OTYSbuGTZYwLDbRZLdNi-38" value="" style="endArrow=none;html=1;rounded=0;fontSize=14;strokeWidth=2;" parent="rUZGJksImo55Bjjk6Eyn-1" edge="1">
          <mxGeometry width="50" height="50" relative="1" as="geometry">
            <mxPoint x="690.3739551783939" y="586.3027428571427" as="sourcePoint" />
            <mxPoint x="707.6333040578537" y="586.3027428571427" as="targetPoint" />
          </mxGeometry>
        </mxCell>
        <mxCell id="OTYSbuGTZYwLDbRZLdNi-39" value="" style="endArrow=none;html=1;rounded=0;fontSize=14;strokeWidth=2;" parent="rUZGJksImo55Bjjk6Eyn-1" edge="1">
          <mxGeometry width="50" height="50" relative="1" as="geometry">
            <mxPoint x="692.4044668112715" y="758.768457142857" as="sourcePoint" />
            <mxPoint x="709.6638156907314" y="758.768457142857" as="targetPoint" />
          </mxGeometry>
        </mxCell>
      </root>
    </mxGraphModel>
  </diagram>
</mxfile>
